<?xml version="1.0" standalone="no"?>
<!DOCTYPE svg PUBLIC "-//W3C//DTD SVG 20010904//EN"
 "http://www.w3.org/TR/2001/REC-SVG-20010904/DTD/svg10.dtd">
<svg version="1.0" xmlns="http://www.w3.org/2000/svg"
 width="384.000000pt" height="384.000000pt" viewBox="0 0 384.000000 384.000000"
 preserveAspectRatio="xMidYMid meet">
<metadata>
Created by potrace 1.11, written by Peter Selinger 2001-2013
</metadata>
<g transform="translate(0.000000,384.000000) scale(0.100000,-0.100000)"
fill="#000000" stroke="none">
<path d="M2008 3044 c-4 -3 -44 -6 -89 -6 -194 2 -356 -54 -459 -158 -190
-191 -250 -333 -250 -594 0 -96 7 -178 20 -255 24 -136 24 -136 4 -117 -17 18
-30 20 -38 7 -4 -5 12 -24 34 -41 60 -47 95 -130 55 -130 -8 0 -15 -8 -15 -17
0 -13 3 -14 12 -5 10 10 16 5 28 -20 12 -26 20 -32 40 -30 14 2 27 5 28 7 2 2
-1 27 -7 57 -9 49 -25 253 -24 305 1 27 54 113 69 113 20 0 36 -28 29 -50 -8
-25 8 -26 61 -4 32 13 60 15 159 10 l120 -7 -23 20 c-23 20 -87 42 -166 58
l-40 8 53 38 c52 38 111 59 111 39 0 -5 -7 -15 -15 -22 -8 -7 -15 -16 -15 -21
0 -16 37 -10 123 21 93 33 150 39 141 16 -8 -20 18 -26 65 -15 61 14 128 47
196 99 51 38 63 43 83 35 12 -5 22 -18 22 -27 0 -10 3 -18 6 -18 17 0 46 24
59 51 9 16 21 27 26 23 19 -11 66 -128 84 -205 13 -59 15 -100 10 -204 -6
-128 -21 -273 -31 -307 -4 -15 1 -18 29 -18 30 0 35 4 40 30 5 23 11 28 24 24
17 -5 17 -4 0 9 -28 23 -13 73 35 119 22 21 44 38 49 38 5 0 9 7 9 15 0 20
-19 19 -43 -2 -19 -17 -19 -17 -14 2 35 121 87 409 87 484 0 131 -117 353
-216 408 -21 13 -56 23 -76 23 -28 0 -40 5 -49 23 -7 12 -15 24 -18 27 -3 3
-13 19 -21 35 -9 17 -29 36 -45 43 -17 7 -37 17 -45 23 -65 42 -195 81 -212
63z"/>
<path d="M2203 2175 c-63 -14 -123 -42 -123 -58 0 -5 49 -6 113 -2 90 5 121 3
156 -9 53 -19 61 -20 61 -3 0 18 -49 64 -83 76 -35 13 -46 13 -124 -4z"/>
<path d="M1537 1985 c-44 -15 -87 -51 -87 -72 0 -9 13 -2 33 16 44 42 53 39
49 -14 -4 -39 0 -49 26 -75 23 -22 40 -30 66 -30 24 0 36 5 36 14 0 21 26 40
36 25 9 -15 33 27 34 60 l0 25 30 -29 c44 -42 37 -12 -8 33 -58 58 -137 75
-215 47z m71 -32 c-5 -26 -38 -29 -38 -4 0 15 6 21 21 21 14 0 19 -5 17 -17z"/>
<path d="M2170 1985 c-39 -18 -86 -59 -102 -90 -7 -14 -1 -11 21 9 30 29 31
29 31 7 0 -30 26 -78 49 -91 30 -15 81 -13 81 5 0 8 9 19 20 25 15 8 20 8 20
-1 0 -8 4 -8 15 1 10 8 15 30 15 61 0 57 10 61 51 19 28 -28 30 -28 27 -8 -7
54 -157 95 -228 63z m30 -35 c0 -13 -7 -20 -20 -20 -19 0 -27 20 -13 33 13 14
33 6 33 -13z"/>
<path d="M2375 1554 c-20 -36 -35 -67 -33 -68 1 -2 53 -29 113 -61 61 -32 112
-61 115 -64 3 -3 21 -13 40 -22 l35 -16 32 59 c18 32 33 63 33 68 0 5 -48 35
-107 66 -60 31 -127 67 -150 80 l-42 23 -36 -65z m79 0 c20 -8 21 -33 0 -41
-8 -3 -13 -12 -10 -19 6 -16 -12 -18 -33 -5 -18 11 -5 31 20 31 10 0 19 5 19
10 0 6 -7 10 -16 10 -8 0 -12 5 -9 10 7 12 8 12 29 4z m68 -79 c-12 -27 -31
-32 -49 -14 -14 14 -6 39 15 57 13 10 19 9 31 -3 12 -11 12 -19 3 -40z m66 -6
c1 -8 -7 -21 -20 -27 -13 -6 -17 -11 -10 -11 6 -1 12 -5 12 -11 0 -6 -10 -5
-25 2 -14 6 -25 15 -25 19 0 5 11 11 25 15 14 3 25 10 25 16 0 5 -4 7 -9 3 -5
-3 -13 0 -16 6 -5 7 1 9 16 7 13 -1 25 -10 27 -19z m60 -32 c5 -23 -15 -47
-39 -47 -13 0 -19 7 -19 23 0 44 50 64 58 24z"/>
<path d="M2490 1491 c-7 -15 -7 -21 0 -21 12 0 25 28 17 36 -3 3 -10 -4 -17
-15z"/>
<path d="M2607 1425 c-4 -8 -2 -17 3 -20 6 -4 10 -4 10 -1 0 2 3 11 6 20 3 9
2 16 -4 16 -5 0 -12 -7 -15 -15z"/>
<path d="M2517 1333 c-10 -9 -9 -23 1 -23 5 0 9 7 9 15 0 17 -1 18 -10 8z"/>
<path d="M2543 1315 c0 -8 4 -12 9 -9 4 3 8 9 8 15 0 5 -4 9 -8 9 -5 0 -9 -7
-9 -15z"/>
<path d="M2600 1309 c0 -5 5 -7 10 -4 6 3 10 8 10 11 0 2 -4 4 -10 4 -5 0 -10
-5 -10 -11z"/>
<path d="M2400 1285 c0 -13 65 -65 82 -65 3 0 8 8 10 18 2 11 -9 24 -35 40
-46 26 -57 27 -57 7z"/>
<path d="M2551 1264 c0 -11 3 -14 6 -6 3 7 2 16 -1 19 -3 4 -6 -2 -5 -13z"/>
<path d="M1491 1127 c-1 -17 3 -26 9 -22 9 6 14 -8 11 -28 -1 -5 3 -6 8 -3 11
7 3 46 -9 46 -5 0 -11 8 -13 18 -3 10 -5 6 -6 -11z"/>
<path d="M1835 1143 c-59 -7 -75 -14 -75 -30 0 -14 7 -15 53 -7 66 10 212 11
255 2 52 -12 35 15 -19 29 -42 11 -150 14 -214 6z"/>
<path d="M1437 1133 c-13 -12 -7 -23 11 -22 10 0 12 3 4 6 -6 2 -10 9 -6 14 6
10 0 12 -9 2z"/>
<path d="M1471 1103 c-1 -13 -5 -23 -11 -23 -5 0 -10 -7 -10 -16 0 -10 -6 -14
-15 -10 -8 3 -15 1 -15 -4 0 -6 -4 -10 -10 -10 -5 0 -6 7 -3 17 4 11 3 14 -5
9 -6 -4 -10 -24 -8 -46 3 -34 1 -38 -14 -30 -20 11 -40 -5 -40 -33 0 -16 -3
-17 -15 -7 -18 15 -45 -2 -45 -30 0 -30 30 -33 58 -5 16 16 33 24 44 22 10 -3
16 -1 13 3 -9 15 7 40 25 40 10 0 21 7 24 16 9 24 7 31 -5 12 -15 -27 -40 -23
-30 4 6 17 17 23 44 24 20 1 34 -2 31 -7 -3 -5 -1 -9 5 -9 6 0 15 9 21 19 9
18 7 19 -20 16 -17 -2 -30 0 -30 5 0 6 7 10 15 10 17 0 18 6 5 35 -8 19 -9 19
-9 -2z"/>
<path d="M1559 1054 c-5 -15 -8 -29 -5 -31 2 -2 8 10 14 26 13 38 5 41 -9 5z"/>
<path d="M1531 1048 c0 -10 -5 -18 -10 -18 -5 0 -12 -7 -15 -16 -3 -8 -2 -12
4 -9 6 3 10 1 10 -4 0 -6 -5 -11 -12 -11 -6 0 -9 -3 -5 -6 3 -3 14 0 24 7 14
11 17 21 12 44 -4 17 -7 22 -8 13z"/>
<path d="M1290 1006 c0 -2 8 -10 18 -17 15 -13 16 -12 3 4 -13 16 -21 21 -21
13z"/>
<path d="M1132 910 c0 -14 2 -19 5 -12 2 6 2 18 0 25 -3 6 -5 1 -5 -13z"/>
<path d="M1420 895 c0 -8 5 -15 10 -15 6 0 10 7 10 15 0 8 -4 15 -10 15 -5 0
-10 -7 -10 -15z"/>
<path d="M1299 873 c-23 -14 -26 -21 -22 -57 6 -48 -7 -64 -60 -76 -27 -7 -28
-8 -7 -9 14 0 37 6 53 13 15 8 27 11 27 6 0 -4 6 -10 14 -13 8 -3 13 1 12 10
0 9 5 18 13 21 8 3 11 0 7 -7 -4 -6 -1 -11 8 -11 9 0 16 6 16 14 0 8 4 16 10
18 5 2 12 22 14 46 3 35 1 44 -16 53 -18 10 -20 9 -14 -7 6 -17 6 -17 -11 -2
-17 15 -20 15 -44 1z m36 -53 c3 -5 1 -10 -4 -10 -6 0 -11 5 -11 10 0 6 2 10
4 10 3 0 8 -4 11 -10z"/>
<path d="M1137 780 c4 -69 10 -98 21 -107 12 -10 181 -13 768 -13 l753 0 15
22 c20 28 9 44 -15 22 -18 -16 -55 -17 -537 -11 -284 4 -578 7 -652 7 -78 0
-129 4 -122 9 11 7 11 9 -1 14 -9 3 -18 0 -20 -7 -4 -9 -31 -13 -86 -14 -72
-2 -82 0 -96 20 -8 13 -15 44 -15 73 0 27 -5 57 -10 65 -6 9 -7 -20 -3 -80z"/>
</g>
</svg>
